<svg width="15" height="15" viewBox="0 0 15 15" fill="none" xmlns="http://www.w3.org/2000/svg">
<g clip-path="url(#clip0_4_48998)">
<path d="M5.60938 9.59068V5.40935C5.60946 5.35703 5.62362 5.3057 5.65036 5.26074C5.6771 5.21577 5.71545 5.17883 5.76138 5.15378C5.8073 5.12873 5.85912 5.11649 5.91141 5.11835C5.96369 5.12021 6.01451 5.13609 6.05854 5.16435L9.31121 7.25443C9.35239 7.28082 9.38628 7.31714 9.40975 7.36005C9.43323 7.40297 9.44553 7.4511 9.44553 7.50001C9.44553 7.54893 9.43323 7.59705 9.40975 7.63997C9.38628 7.68288 9.35239 7.71921 9.31121 7.74559L6.05854 9.83626C6.01451 9.86451 5.96369 9.8804 5.91141 9.88226C5.85912 9.88412 5.8073 9.87188 5.76138 9.84683C5.71545 9.82178 5.6771 9.78483 5.65036 9.73987C5.62362 9.69491 5.60946 9.64358 5.60938 9.59126V9.59068Z" fill="white"/>
<path d="M0.651123 7.50001C0.651123 3.95626 3.52404 1.08334 7.06779 1.08334C10.6115 1.08334 13.4845 3.95626 13.4845 7.50001C13.4845 11.0438 10.6115 13.9167 7.06779 13.9167C3.52404 13.9167 0.651123 11.0438 0.651123 7.50001ZM7.06779 1.95834C5.59805 1.95834 4.1885 2.5422 3.14924 3.58146C2.10998 4.62072 1.52612 6.03027 1.52612 7.50001C1.52612 8.96975 2.10998 10.3793 3.14924 11.4186C4.1885 12.4578 5.59805 13.0417 7.06779 13.0417C8.53753 13.0417 9.94708 12.4578 10.9863 11.4186C12.0256 10.3793 12.6095 8.96975 12.6095 7.50001C12.6095 6.03027 12.0256 4.62072 10.9863 3.58146C9.94708 2.5422 8.53753 1.95834 7.06779 1.95834Z" fill="white"/>
</g>
<defs>
<clipPath id="clip0_4_48998">
<rect width="14" height="14" fill="white" transform="translate(0.483276 0.5)"/>
</clipPath>
</defs>
</svg>
